<?xml version="1.0" standalone="no"?>
<!DOCTYPE svg PUBLIC "-//W3C//DTD SVG 20010904//EN"
 "http://www.w3.org/TR/2001/REC-SVG-20010904/DTD/svg10.dtd">
<svg version="1.0" xmlns="http://www.w3.org/2000/svg"
 width="580.000000pt" height="72.000000pt" viewBox="0 0 580.000000 72.000000"
 preserveAspectRatio="xMidYMid meet">

<g transform="translate(0.000000,72.000000) scale(0.100000,-0.100000)"
fill="#000000" stroke="none">
<path d="M1733 698 c-69 -78 -70 -116 -8 -193 54 -65 65 -92 65 -148 0 -43
-29 -119 -49 -131 -21 -13 -11 -26 21 -26 20 0 55 -14 89 -35 l57 -35 83 86
c100 102 110 119 117 199 6 76 -8 119 -59 187 -21 29 -39 58 -39 65 0 21 -13
16 -100 -43 l-83 -55 -38 43 c-39 44 -48 75 -27 96 7 7 8 12 2 12 -6 0 -20
-10 -31 -22z m220 -150 c46 -61 60 -101 60 -163 0 -60 -27 -144 -52 -159 -9
-6 -106 39 -129 59 -2 1 6 30 18 64 24 73 25 96 4 158 -15 44 -15 48 2 60 32
24 71 16 97 -19z"/>
<path d="M414 690 c-41 -9 -87 -43 -116 -82 -32 -46 -32 -127 1 -162 31 -33
83 -50 127 -42 53 11 40 21 -27 21 -76 0 -99 22 -99 95 0 42 4 52 35 79 53 46
110 44 212 -10 43 -23 94 -50 114 -61 43 -22 66 -16 119 32 l35 31 -30 -6
c-25 -5 -47 4 -113 44 -105 63 -178 81 -258 61z"/>
<path d="M3836 685 c-103 -37 -159 -160 -104 -230 38 -49 115 -69 154 -41 17
13 14 14 -36 9 -46 -4 -59 -2 -82 16 -56 45 -43 142 23 177 57 29 120 16 236
-50 114 -64 125 -65 188 -10 l40 35 -32 -6 c-28 -6 -45 1 -108 40 -111 70
-199 89 -279 60z"/>
<path d="M997 676 c-40 -15 -62 -30 -87 -59 -15 -18 -16 -18 -30 7 -7 14 -17
26 -22 26 -5 0 -1 -15 9 -32 26 -47 33 -387 9 -407 -13 -11 -10 -17 27 -45
l42 -33 37 36 c44 43 47 50 13 43 l-25 -4 0 131 0 132 27 -3 c38 -4 70 -64 78
-147 9 -101 -10 -150 -92 -233 -95 -96 -60 -85 42 13 102 98 129 148 128 234
0 62 -12 93 -61 167 l-24 37 -43 -29 c-24 -17 -46 -30 -49 -30 -3 0 -6 32 -6
70 0 79 16 106 71 117 22 4 27 8 17 14 -16 11 -15 11 -61 -5z"/>
<path d="M3410 673 c-8 -3 -31 -21 -52 -40 l-36 -35 -17 26 c-27 40 -37 31
-12 -11 20 -34 22 -54 26 -206 3 -149 1 -170 -14 -187 -17 -19 -16 -20 11 -30
16 -6 41 -23 55 -36 l26 -25 24 38 c13 21 28 44 32 51 7 11 5 12 -11 3 -15 -8
-23 -6 -36 8 -13 15 -16 44 -16 177 1 217 8 244 75 266 15 5 13 6 -10 6 -16 0
-37 -2 -45 -5z"/>
<path d="M4346 664 c-18 -17 -15 -58 5 -78 16 -17 64 28 64 60 0 24 -5 30 -26
32 -15 2 -34 -4 -43 -14z"/>
<path d="M5450 609 c-11 -8 -6 -9 22 -4 45 7 94 -15 110 -50 23 -52 -38 -73
-100 -35 l-33 21 -51 -43 c-79 -66 -91 -125 -37 -174 26 -23 24 -49 -6 -72
-35 -28 -31 -38 22 -56 26 -9 57 -25 69 -37 l21 -20 62 67 c73 80 79 113 31
159 -16 16 -30 34 -30 40 0 7 16 26 35 43 43 40 52 70 31 111 -27 51 -106 78
-146 50z m17 -155 l54 -27 -37 -38 -38 -39 -38 37 c-39 38 -46 61 -26 81 17
17 24 16 85 -14z m42 -148 c27 -28 32 -40 27 -60 -4 -16 -13 -26 -25 -26 -16
0 -108 36 -120 46 -7 6 61 74 74 74 6 0 26 -15 44 -34z"/>
<path d="M491 542 c-52 -49 -47 -77 25 -145 57 -54 65 -78 37 -110 -17 -19
-17 -19 7 -12 37 11 81 45 89 69 13 34 -6 71 -65 124 -52 48 -65 74 -44 87 13
8 13 25 0 25 -5 0 -27 -17 -49 -38z"/>
<path d="M3930 542 c-38 -33 -42 -42 -36 -66 4 -16 32 -52 62 -81 58 -56 63
-68 38 -103 -18 -26 -13 -27 29 -6 52 27 67 45 67 82 0 29 -9 43 -60 91 -59
57 -72 85 -48 109 8 8 8 12 1 12 -6 0 -30 -17 -53 -38z"/>
<path d="M1300 512 c-73 -37 -104 -90 -104 -177 0 -67 32 -148 64 -165 10 -5
25 -17 34 -26 14 -14 20 -12 60 15 25 17 49 31 55 31 5 0 13 4 16 10 4 6 -6 7
-24 4 -47 -10 -87 12 -111 60 -11 23 -20 47 -20 53 0 6 34 23 76 38 42 15 78
33 80 40 6 14 -52 145 -63 145 -4 0 -33 -13 -63 -28z m36 -76 l23 -57 -34 -15
c-62 -26 -68 -22 -60 44 8 63 21 95 37 90 5 -2 21 -30 34 -62z"/>
<path d="M2273 514 c-62 -30 -89 -64 -103 -131 -17 -77 15 -189 59 -213 11 -5
26 -17 35 -25 13 -14 21 -11 77 25 53 34 57 39 31 34 -48 -10 -88 12 -112 60
-11 23 -20 47 -20 53 0 6 34 23 75 38 41 15 77 31 80 36 7 10 -48 142 -61 145
-5 2 -33 -8 -61 -22z m7 -18 c0 -2 11 -29 25 -60 l25 -57 -36 -15 c-56 -23
-67 -14 -59 49 8 56 20 87 35 87 6 0 10 -2 10 -4z"/>
<path d="M2465 500 c-30 -48 -30 -47 -2 -46 21 1 22 -2 25 -113 2 -74 -1 -118
-9 -127 -9 -11 -5 -16 17 -25 16 -5 39 -20 51 -31 13 -12 24 -20 26 -17 1 2
17 23 35 46 34 44 42 64 17 43 -8 -6 -23 -9 -35 -5 -18 6 -20 14 -20 109 0 77
4 107 14 115 11 10 16 8 21 -8 3 -10 12 -25 20 -31 12 -10 19 -8 35 11 10 13
19 29 20 36 0 14 -33 73 -41 73 -3 0 -18 -13 -34 -30 -34 -35 -41 -37 -50 -10
-4 11 -20 27 -35 35 -29 15 -30 15 -55 -25z"/>
<path d="M2832 514 c-59 -29 -85 -60 -102 -123 -22 -84 8 -182 73 -233 l35
-27 56 32 c30 18 55 34 56 37 0 3 -18 5 -39 5 -28 0 -47 7 -66 25 -28 27 -55
105 -54 159 0 43 20 103 34 108 6 2 21 -17 33 -43 21 -42 25 -45 50 -39 15 3
31 10 35 14 9 9 -38 111 -51 111 -5 0 -31 -12 -60 -26z"/>
<path d="M3128 525 c-20 -7 -48 -21 -62 -30 -77 -50 -90 -234 -22 -305 60 -63
59 -63 122 -25 72 44 74 45 30 38 -55 -9 -96 26 -120 103 -6 19 2 24 70 49 41
15 78 33 80 40 5 11 -50 146 -58 144 -2 0 -19 -6 -40 -14z m11 -93 l21 -53
-35 -14 c-19 -8 -39 -15 -45 -15 -17 0 -12 103 6 129 20 27 26 22 53 -47z"/>
<path d="M4310 496 c-33 -48 -38 -65 -15 -46 28 24 35 0 35 -126 0 -125 0
-126 29 -155 16 -16 35 -29 43 -29 7 0 23 18 36 40 l23 40 -23 -3 c-23 -2 -23
0 -26 112 -2 76 1 118 9 127 10 12 4 21 -27 49 -21 19 -42 34 -46 35 -4 0 -21
-20 -38 -44z"/>
<path d="M4525 503 c-29 -57 -30 -59 -12 -45 9 8 21 11 27 7 14 -9 13 -228 -1
-242 -8 -8 -3 -22 21 -52 l33 -40 29 40 c23 31 26 43 18 59 -5 10 -10 63 -10
118 0 97 1 100 27 117 25 17 27 17 40 -1 17 -23 18 -225 2 -241 -9 -9 -3 -22
22 -51 l33 -40 28 39 c23 31 26 43 18 59 -5 10 -10 63 -10 118 0 86 3 101 20
117 19 17 21 17 40 0 18 -16 20 -31 20 -125 0 -120 10 -161 45 -184 34 -22 39
-21 63 23 25 44 28 58 9 42 -27 -22 -37 9 -37 118 0 80 4 108 16 122 14 15 12
18 -18 28 -17 6 -42 20 -54 31 l-21 21 -38 -35 -38 -35 -32 35 c-18 19 -37 34
-42 34 -6 0 -27 -16 -47 -35 l-37 -35 -33 35 c-19 19 -40 35 -48 35 -8 0 -23
-17 -33 -37z"/>
<path d="M5175 524 c-83 -30 -125 -95 -125 -191 0 -73 26 -130 76 -171 37 -30
39 -31 63 -16 13 9 39 25 58 36 18 11 33 21 33 23 0 2 -16 1 -35 -2 -46 -7
-81 16 -105 70 -10 23 -17 44 -14 48 2 4 36 20 75 35 38 15 72 32 75 36 7 10
-34 117 -50 134 -8 9 -21 8 -51 -2z m10 -80 c14 -31 25 -59 25 -63 0 -3 -20
-13 -45 -22 l-45 -17 0 57 c0 49 18 101 36 101 2 0 15 -25 29 -56z"/>
<path d="M324 318 l-49 -32 41 -6 c29 -4 55 -18 86 -46 98 -86 202 -114 280
-75 48 25 93 59 86 66 -2 3 -22 -4 -43 -15 -22 -11 -50 -20 -64 -20 -41 0
-105 37 -174 100 -42 39 -74 60 -89 60 -13 0 -46 -14 -74 -32z"/>
<path d="M3779 330 c-19 -10 -41 -26 -48 -34 -12 -14 -9 -16 20 -16 23 0 46
-11 78 -38 137 -115 233 -129 341 -51 51 37 46 48 -9 20 -22 -12 -50 -21 -62
-21 -39 0 -109 41 -174 101 -69 65 -88 70 -146 39z"/>
</g>
</svg>
